<svg width="10" height="10" viewBox="0 0 10 10" fill="none" xmlns="http://www.w3.org/2000/svg">
<path fill-rule="evenodd" clip-rule="evenodd" d="M5.0004 0.199951C3.69679 0.199951 3.53319 0.205651 3.02118 0.228951C2.51018 0.252352 2.16137 0.333253 1.85617 0.451954C1.54047 0.574555 1.27266 0.738557 1.00586 1.00546C0.738857 1.27226 0.574855 1.54006 0.451854 1.85567C0.332853 2.16097 0.251852 2.50988 0.228851 3.02068C0.205951 3.53269 0.199951 3.69639 0.199951 5C0.199951 6.30361 0.205751 6.46672 0.228951 6.97872C0.252452 7.48973 0.333353 7.83853 0.451954 8.14373C0.574655 8.45944 0.738657 8.72724 1.00556 8.99404C1.27226 9.26105 1.54007 9.42545 1.85557 9.54805C2.16097 9.66675 2.50988 9.74765 3.02078 9.77105C3.53279 9.79435 3.69629 9.80005 4.9998 9.80005C6.30352 9.80005 6.46662 9.79435 6.97862 9.77105C7.48963 9.74765 7.83883 9.66675 8.14423 9.54805C8.45984 9.42545 8.72724 9.26105 8.99394 8.99404C9.26095 8.72724 9.42495 8.45944 9.54795 8.14383C9.66595 7.83853 9.74695 7.48963 9.77095 6.97882C9.79395 6.46682 9.79995 6.30361 9.79995 5C9.79995 3.69639 9.79395 3.53279 9.77095 3.02078C9.74695 2.50977 9.66595 2.16097 9.54795 1.85577C9.42495 1.54007 9.26095 1.27226 8.99394 1.00546C8.72694 0.738457 8.45994 0.574455 8.14393 0.451954C7.83793 0.333253 7.48893 0.252352 6.97792 0.228951C6.46592 0.205651 6.30292 0.199951 4.9989 0.199951H5.0004ZM4.56978 1.06495C4.69758 1.06475 4.84018 1.06495 5.00038 1.06495C6.28199 1.06495 6.4339 1.06955 6.94 1.09255C7.40801 1.11395 7.66201 1.19215 7.83121 1.25785C8.05521 1.34485 8.21491 1.44885 8.38282 1.61685C8.55082 1.78485 8.65482 1.94486 8.74202 2.16886C8.80772 2.33786 8.88602 2.59186 8.90732 3.05987C8.93032 3.56587 8.93532 3.71787 8.93532 4.99889C8.93532 6.2799 8.93032 6.4319 8.90732 6.93791C8.88592 7.40591 8.80772 7.65992 8.74202 7.82892C8.65502 8.05292 8.55082 8.21242 8.38282 8.38032C8.21481 8.54833 8.05531 8.65233 7.83121 8.73933C7.66221 8.80533 7.40801 8.88333 6.94 8.90473C6.434 8.92773 6.28199 8.93273 5.00038 8.93273C3.71867 8.93273 3.56677 8.92773 3.06076 8.90473C2.59276 8.88313 2.33875 8.80493 2.16945 8.73923C1.94545 8.65223 1.78545 8.54822 1.61745 8.38022C1.44944 8.21222 1.34544 8.05262 1.25824 7.82852C1.19254 7.65952 1.11424 7.40551 1.09294 6.93751C1.06994 6.4315 1.06534 6.2795 1.06534 4.99769C1.06534 3.71587 1.06994 3.56467 1.09294 3.05867C1.11434 2.59066 1.19254 2.33666 1.25824 2.16746C1.34524 1.94346 1.44944 1.78345 1.61745 1.61545C1.78545 1.44745 1.94545 1.34345 2.16945 1.25625C2.33865 1.19025 2.59276 1.11225 3.06076 1.09075C3.50357 1.07075 3.67517 1.06475 4.56978 1.06375V1.06495ZM7.56261 1.86196C7.24461 1.86196 6.9866 2.11966 6.9866 2.43776C6.9866 2.75577 7.24461 3.01377 7.56261 3.01377C7.88061 3.01377 8.13862 2.75577 8.13862 2.43776C8.13862 2.11976 7.88061 1.86196 7.56261 1.86196ZM5.00041 2.53496C3.6391 2.53496 2.53538 3.63867 2.53538 4.99999C2.53538 6.3613 3.6391 7.46451 5.00041 7.46451C6.36172 7.46451 7.46503 6.3613 7.46503 4.99999C7.46503 3.63867 6.36172 2.53496 5.00041 2.53496ZM5.00039 3.39997C5.884 3.39997 6.60041 4.11628 6.60041 4.99999C6.60041 5.8836 5.884 6.6 5.00039 6.6C4.11668 6.6 3.40037 5.8836 3.40037 4.99999C3.40037 4.11628 4.11668 3.39997 5.00039 3.39997Z" fill="#D87E7E"/>
</svg>
