<svg width="10" height="8" viewBox="0 0 10 8" fill="none" xmlns="http://www.w3.org/2000/svg">
<path fill-rule="evenodd" clip-rule="evenodd" d="M4.73045 2.31534L4.74934 2.62676L4.43457 2.58862C3.28882 2.44245 2.28787 1.94672 1.438 1.11414L1.02251 0.701036L0.915491 1.0061C0.688859 1.68614 0.833652 2.40431 1.3058 2.88733C1.55761 3.15427 1.50095 3.1924 1.06658 3.03351C0.915491 2.98267 0.783289 2.94453 0.770699 2.9636C0.726631 3.00809 0.877719 3.58644 0.99733 3.81524C1.16101 4.13302 1.49466 4.44444 1.85979 4.62875L2.16826 4.77492L1.80313 4.78128C1.45059 4.78128 1.438 4.78763 1.47577 4.9211C1.60168 5.33421 2.09901 5.77274 2.653 5.9634L3.04331 6.09687L2.70336 6.30025C2.19973 6.5926 1.60798 6.75784 1.01622 6.77056C0.732927 6.77691 0.5 6.80233 0.5 6.8214C0.5 6.88495 1.26803 7.24086 1.715 7.38068C3.0559 7.79379 4.64861 7.61584 5.84472 6.91038C6.69459 6.40829 7.54446 5.41047 7.94106 4.44444C8.1551 3.92964 8.36914 2.98902 8.36914 2.53778C8.36914 2.24543 8.38803 2.20729 8.74057 1.85774C8.94831 1.65436 9.14347 1.43192 9.18124 1.36837C9.24419 1.24761 9.2379 1.24761 8.91683 1.35565C8.38173 1.54632 8.30619 1.5209 8.57059 1.2349C8.76575 1.03152 8.99867 0.662903 8.99867 0.554859C8.99867 0.535793 8.90424 0.56757 8.79722 0.62477C8.68391 0.688325 8.4321 0.783658 8.24324 0.840857L7.90329 0.948901L7.59482 0.739169C7.42485 0.62477 7.18562 0.497659 7.05972 0.459526C6.73866 0.370549 6.24762 0.38326 5.95804 0.484948C5.17112 0.770947 4.67379 1.50819 4.73045 2.31534Z" fill="#D87E7E"/>
</svg>
