<svg width="10" height="8" viewBox="0 0 10 8" fill="none" xmlns="http://www.w3.org/2000/svg">
<path fill-rule="evenodd" clip-rule="evenodd" d="M8.75055 0.90595C9.16362 1.0193 9.48893 1.35328 9.59933 1.77741C9.79995 2.54609 9.79995 4.14995 9.79995 4.14995C9.79995 4.14995 9.79995 5.75376 9.59933 6.52249C9.48893 6.94662 9.16362 7.2806 8.75055 7.39401C8.00197 7.59995 4.99995 7.59995 4.99995 7.59995C4.99995 7.59995 1.99793 7.59995 1.2493 7.39401C0.836224 7.2806 0.510915 6.94662 0.400515 6.52249C0.199951 5.75376 0.199951 4.14995 0.199951 4.14995C0.199951 4.14995 0.199951 2.54609 0.400515 1.77741C0.510915 1.35328 0.836224 1.0193 1.2493 0.90595C1.99793 0.699951 4.99995 0.699951 4.99995 0.699951C4.99995 0.699951 8.00197 0.699951 8.75055 0.90595ZM4.09996 2.79992V5.79992L6.49996 4.29998L4.09996 2.79992Z" fill="#D87E7E"/>
</svg>
